PathFileType	4	(X/Y/Z)	SUBJ62_3_walk_RCNL2025.trc
DataRate	CameraRate	NumFrames	NumMarkers	Units	OrigDataRate	OrigDataStartFrame	OrigNumFrames
100	100	6	25	mm	100	198	316
Frame#	Time	R_Shoulder			L_Shoulder			C7			J_Notch			R_Elbow			L_Elbow			R_Wrist			L_Wrist			R_Asis			L_Asis			Sacral			Thoracic			Sternum			R_Thigh_Lateral			R_Knee_Lateral			R_Shank_Lateral			R_Ankle_Lateral			R_Heel			R_Toe			L_Thigh_Lateral			L_Knee_Lateral			L_Shank_Lateral			L_Ankle_Lateral			L_Heel			L_Toe		
		X1	Y1	Z1	X2	Y2	Z2	X3	Y3	Z3	X4	Y4	Z4	X5	Y5	Z5	X6	Y6	Z6	X7	Y7	Z7	X8	Y8	Z8	X9	Y9	Z9	X10	Y10	Z10	X11	Y11	Z11	X12	Y12	Z12	X13	Y13	Z13	X14	Y14	Z14	X15	Y15	Z15	X16	Y16	Z16	X17	Y17	Z17	X18	Y18	Z18	X19	Y19	Z19	X20	Y20	Z20	X21	Y21	Z21	X22	Y22	Z22	X23	Y23	Z23	X24	Y24	Z24	X25	Y25	Z25
198	1.97000000	151.599243	1263.444824	270.166321	125.624130	1275.809937	-70.011177	66.642181	1336.450195	104.708328	198.535339	1248.875000	96.504929	178.307449	971.678040	351.943848	24.584867	986.367493	-116.916573	357.526505	843.355377	316.848206	25.501390	766.319763	-118.919258	187.044159	849.593628	251.047638	219.653320	857.367310	-7.889385	30.682713	856.538086	95.793236	5.755803	1139.404663	100.400711	221.081787	1050.044067	101.802200	45.898899	472.790100	293.562500	44.840870	413.997894	219.432678	-52.492111	263.154022	251.151611	-177.245346	123.718285	171.470947	-228.709122	145.984177	135.746902	-109.567307	48.841942	143.346207	266.386353	472.093933	-52.745270	276.192230	410.856964	-1.682066	316.079346	221.595520	-27.005785	327.833069	54.765385	41.059063	265.644897	49.980434	82.811096	434.591919	42.480911	55.882442
199	1.98000000	163.974701	1265.028809	268.949982	137.324463	1277.203125	-70.992065	78.397614	1337.832642	103.755905	210.389816	1250.412598	95.259796	186.248734	972.612061	350.973267	38.950462	986.970459	-118.293907	363.148224	840.898682	316.570908	42.076523	766.852783	-119.929684	199.693314	850.537964	249.492645	231.208069	859.711609	-9.189587	42.372002	857.745422	95.385193	17.601995	1140.757812	99.748917	233.066559	1051.544922	100.657829	64.831604	471.788422	294.284668	63.975971	412.829254	220.724380	-37.661606	265.385468	252.729477	-167.047287	130.211197	173.208435	-216.905731	155.516525	137.434753	-105.453316	49.528046	143.808014	278.312805	473.929504	-53.284897	285.502472	411.839447	-2.278254	321.841034	221.355804	-27.086626	328.377533	54.456718	40.999706	265.890656	50.577076	82.489784	435.002075	41.074883	56.248962
200	1.99000000	176.226273	1266.695312	267.790009	149.054947	1278.756226	-71.883499	90.085449	1339.286987	102.873177	222.192001	1252.035400	94.115967	193.976089	973.641724	349.942230	53.589191	987.692017	-119.782745	368.202759	838.151306	316.355530	59.333668	767.524445	-121.007454	212.133133	851.594177	247.913544	242.662384	862.108154	-10.444759	53.937759	859.009827	94.839798	29.374964	1142.201904	99.082031	244.968185	1053.119751	99.576996	84.951500	470.773254	295.291473	84.062714	411.577362	222.194183	-21.745430	267.709106	254.390747	-155.554489	136.863235	175.056885	-203.623123	165.032364	139.020370	-100.138672	50.698032	144.617371	289.119995	475.491943	-53.901127	293.845459	412.652924	-2.941316	327.036774	221.076813	-27.234669	328.778656	54.258743	40.893002	266.072601	51.085670	82.172264	435.271881	40.192936	56.531387
201	2.00000000	188.296829	1268.388428	266.719604	160.815796	1280.405762	-72.680801	101.694633	1340.769531	102.055740	233.925400	1253.692871	93.093132	201.516083	974.718933	348.851685	68.456047	988.477539	-121.365639	372.727478	835.136627	316.207199	77.220627	768.303284	-122.143097	224.310043	852.722534	246.367065	254.014038	864.433411	-11.630230	65.370445	860.296265	94.151871	41.060505	1143.693115	98.383575	256.773712	1054.723999	98.584801	106.080055	469.824432	296.559845	104.925133	410.327118	223.795044	-4.809327	270.122162	256.096252	-142.770920	143.598022	176.997528	-188.948761	174.343567	140.493134	-93.327080	52.471378	145.877182	298.659149	476.699615	-54.605995	301.188965	413.259186	-3.660020	331.610870	220.730392	-27.438654	329.068329	54.134434	40.761337	266.218140	51.503532	81.882797	435.442505	39.707935	56.743862
202	2.01000000	200.145401	1270.056763	265.769836	172.603912	1282.090942	-73.381561	113.222137	1342.246704	101.299393	245.577545	1255.339111	92.204620	208.893768	975.796631	347.701294	83.506172	989.271484	-123.019913	376.755081	831.878265	316.133224	95.683121	769.160950	-123.326496	236.184998	853.891846	244.905182	265.258575	866.578918	-12.730614	76.661118	861.577393	93.331375	52.646202	1145.197510	97.643852	268.465912	1056.316895	97.700508	127.970528	469.024567	298.033569	126.374756	409.184570	225.464523	13.062052	272.635406	257.801086	-128.710617	150.329971	178.994095	-173.000244	183.265701	141.844803	-84.732346	54.922417	147.670242	306.885406	477.514771	-55.407074	307.563782	413.648804	-4.419777	335.550903	220.307449	-27.688599	329.269684	54.052414	40.623749	266.341919	51.838226	81.635658	435.543304	39.497646	56.899055
203	2.02000000	211.748764	1271.656494	264.965576	184.411682	1283.759888	-73.985657	124.670868	1343.696655	100.600609	257.139709	1256.935791	91.456787	216.131790	976.834351	346.490479	98.694740	990.022766	-124.717339	380.311615	828.401306	316.141190	114.667576	770.076294	-124.546604	247.738251	855.082458	243.567902	276.389648	868.462280	-13.740327	87.802795	862.835510	92.401886	64.121742	1146.691895	96.860489	280.024933	1057.863525	96.935616	150.315567	468.451935	299.627258	148.227219	408.266846	227.133133	31.772528	275.273254	259.461304	-113.392731	156.960098	181.000076	-155.907791	191.623230	143.070145	-74.107559	58.060139	150.043427	313.857330	477.942749	-56.301952	313.054779	413.837494	-5.202073	338.887421	219.815247	-27.974268	329.400940	53.988636	40.495621	266.451691	52.103928	81.437111	435.595734	39.457211	57.007927
